<?xml version="1.0" standalone="no"?>
<!DOCTYPE svg PUBLIC "-//W3C//DTD SVG 20010904//EN"
 "http://www.w3.org/TR/2001/REC-SVG-20010904/DTD/svg10.dtd">
<svg version="1.0" xmlns="http://www.w3.org/2000/svg"
 width="371.000000pt" height="371.000000pt" viewBox="0 0 371.000000 371.000000"
 preserveAspectRatio="xMidYMid meet">
<metadata>
Created by potrace 1.11, written by Peter Selinger 2001-2013
</metadata>
<g transform="translate(0.000000,371.000000) scale(0.100000,-0.100000)"
fill="#000000" stroke="none">
<path d="M1346 3558 c-9 -12 -16 -33 -16 -45 0 -13 -4 -23 -9 -23 -11 0 -25
-74 -22 -112 1 -14 -2 -29 -8 -33 -16 -9 -14 -200 2 -225 8 -14 9 -23 2 -28
-12 -8 -31 -39 -45 -69 -5 -13 -14 -23 -20 -23 -6 0 -15 -10 -20 -22 -13 -30
-33 -61 -43 -69 -11 -8 -34 -47 -43 -71 -3 -10 -10 -18 -15 -18 -5 0 -9 -6 -9
-13 0 -18 -43 -53 -48 -39 -2 7 -10 12 -18 12 -8 0 -14 4 -14 9 0 5 -9 7 -20
4 -12 -3 -20 0 -20 7 0 8 -11 11 -30 8 -16 -2 -31 0 -33 6 -2 5 -9 6 -17 1
-10 -6 -8 -11 11 -18 13 -6 29 -11 34 -12 6 -2 24 -9 40 -16 17 -7 32 -13 35
-13 3 -1 14 -7 25 -13 18 -11 18 -13 3 -30 -8 -10 -23 -33 -32 -50 -16 -32
-18 -33 -86 -33 -38 0 -71 4 -74 9 -8 13 -189 8 -193 -5 -4 -11 133 -24 260
-25 31 0 56 -4 54 -7 -2 -4 -21 -42 -41 -84 -34 -71 -40 -78 -66 -78 -16 0
-31 -4 -34 -9 -3 -5 -42 -12 -86 -16 -54 -5 -80 -11 -77 -19 4 -13 97 -18 97
-5 0 5 20 9 45 9 28 0 45 4 45 12 0 8 3 9 10 2 11 -11 -13 -70 -33 -85 -5 -3
-9 -9 -9 -12 0 -19 -12 -47 -20 -47 -5 0 -7 -4 -3 -9 3 -5 1 -12 -4 -15 -5 -3
-12 -22 -15 -41 -4 -19 -11 -35 -16 -35 -6 0 -10 -8 -10 -17 0 -10 -7 -31 -15
-46 -8 -15 -17 -43 -21 -63 -3 -19 -10 -36 -14 -39 -5 -3 -11 -23 -15 -45 -4
-22 -10 -40 -15 -40 -7 0 -19 -42 -22 -80 0 -8 -4 -19 -8 -25 -5 -5 -11 -37
-15 -70 -4 -33 -13 -63 -19 -67 -16 -11 -15 -496 1 -506 7 -4 15 -41 19 -82 4
-41 10 -79 14 -85 4 -5 10 -23 14 -40 4 -16 11 -32 14 -35 4 -3 12 -14 18 -24
11 -22 44 -31 44 -13 0 7 7 4 14 -6 7 -9 18 -17 25 -17 6 0 11 -15 11 -34 0
-19 4 -37 9 -41 6 -3 8 -14 6 -25 -2 -11 0 -22 6 -25 5 -4 9 -19 9 -36 0 -16
4 -29 10 -29 5 0 8 -10 6 -22 -1 -13 0 -30 4 -38 4 -8 24 -51 46 -95 21 -44
38 -83 36 -87 -1 -5 2 -8 8 -8 5 0 10 -6 10 -13 0 -8 9 -22 20 -32 11 -10 20
-22 20 -26 0 -12 87 -99 98 -99 5 0 17 -9 27 -20 10 -11 24 -20 32 -20 7 0 13
-4 13 -10 0 -5 -5 -10 -11 -10 -17 0 -41 -29 -36 -44 8 -20 89 -26 387 -26
294 0 350 4 350 26 0 8 5 14 10 14 6 0 10 -6 10 -14 0 -21 56 -26 341 -26 295
0 388 6 396 26 6 16 -16 40 -43 46 -16 3 -15 6 10 19 37 20 166 149 166 166 0
7 4 13 9 13 11 0 23 20 60 96 44 92 60 134 67 174 1 8 8 33 14 55 6 22 12 52
13 67 1 14 5 30 10 34 4 4 7 16 7 26 0 10 6 18 14 18 8 0 17 8 20 17 5 12 10
13 17 6 18 -18 70 43 76 89 3 21 9 38 13 38 4 0 10 36 13 80 3 45 11 88 19 97
18 22 19 440 1 451 -7 4 -12 16 -12 27 1 43 -14 125 -24 125 -5 0 -7 11 -5 25
3 14 1 28 -3 31 -5 3 -9 14 -9 25 0 10 -4 19 -9 19 -5 0 -11 19 -15 42 -4 23
-11 47 -16 53 -4 5 -9 13 -9 17 -7 43 -15 68 -24 68 -6 0 -8 3 -4 6 3 4 -1 23
-9 43 -9 20 -17 41 -19 46 -14 45 -18 55 -26 55 -5 0 -9 3 -8 8 2 15 -14 52
-23 52 -5 0 -7 4 -3 9 3 5 -6 31 -20 57 -17 32 -22 51 -15 58 7 7 10 6 10 -2
0 -8 17 -12 44 -12 25 0 48 -5 51 -11 4 -6 27 -9 51 -8 24 2 46 0 50 -4 12
-12 36 -8 31 6 -2 6 -11 11 -21 9 -9 -2 -16 1 -16 6 0 5 -36 13 -80 16 -44 4
-82 12 -85 17 -4 5 -19 9 -35 9 -24 0 -33 7 -45 33 -8 17 -23 46 -34 63 -10
16 -21 39 -25 51 -6 19 -3 21 51 22 141 3 254 14 250 25 -4 13 -175 17 -183 4
-3 -4 -35 -8 -72 -8 -72 0 -92 11 -107 61 -4 13 -12 27 -18 31 -7 4 -5 12 5
22 9 8 18 13 21 10 2 -3 20 4 38 14 19 10 39 17 44 16 6 -2 21 5 35 16 20 16
22 20 8 20 -10 0 -18 -4 -18 -8 0 -5 -13 -7 -30 -4 -19 3 -30 0 -30 -8 0 -7
-7 -10 -15 -7 -8 4 -17 2 -20 -3 -4 -6 -17 -10 -31 -10 -13 0 -24 -4 -24 -10
0 -17 -17 -11 -24 8 -3 9 -17 35 -30 57 -14 22 -28 47 -32 55 -4 8 -20 31 -36
51 -15 20 -28 40 -28 43 0 4 -12 18 -26 31 -15 14 -23 25 -19 25 4 0 0 9 -10
20 -17 18 -19 40 -19 190 -1 92 -4 172 -8 176 -5 4 -8 17 -8 30 0 22 -29 86
-42 92 -4 2 -4 10 -1 18 8 21 -43 18 -64 -4 -36 -37 -107 -173 -119 -224 -12
-58 -7 -57 -315 -56 -171 0 -289 4 -296 10 -7 6 -15 25 -19 44 -3 19 -10 34
-14 34 -5 0 -12 15 -15 33 -11 50 -33 88 -78 135 -47 48 -60 51 -81 20z m-539
-2150 c-3 -8 -6 -5 -6 6 -1 11 2 17 5 13 3 -3 4 -12 1 -19z"/>
<path d="M610 2380 c0 -5 14 -10 30 -10 17 0 30 5 30 10 0 6 -13 10 -30 10
-16 0 -30 -4 -30 -10z"/>
</g>
</svg>
