<?xml version="1.0" standalone="no"?>
<!DOCTYPE svg PUBLIC "-//W3C//DTD SVG 20010904//EN"
 "http://www.w3.org/TR/2001/REC-SVG-20010904/DTD/svg10.dtd">
<svg version="1.0" xmlns="http://www.w3.org/2000/svg"
 width="371.000000pt" height="371.000000pt" viewBox="0 0 371.000000 371.000000"
 preserveAspectRatio="xMidYMid meet">
<metadata>
Created by potrace 1.11, written by Peter Selinger 2001-2013
</metadata>
<g transform="translate(0.000000,371.000000) scale(0.100000,-0.100000)"
fill="#000000" stroke="none">
<path d="M0 1855 l0 -1855 1855 0 1855 0 0 1855 0 1855 -1855 0 -1855 0 0
-1855z m1464 1054 c22 -17 26 -28 26 -73 0 -65 -18 -85 -86 -94 -45 -7 -50 -5
-81 26 -36 36 -45 90 -18 112 8 7 15 18 15 25 0 30 107 33 144 4z m912 -6 c23
-21 29 -35 29 -68 0 -55 -28 -83 -93 -94 -48 -7 -53 -6 -79 21 -63 66 -20 168
72 168 32 0 49 -7 71 -27z m-351 -573 c6 -4 32 -10 59 -14 27 -3 55 -11 61
-16 7 -6 17 -10 21 -9 5 1 18 -1 29 -5 11 -5 27 -10 35 -14 8 -3 18 -4 23 -4
4 1 7 -2 7 -7 0 -8 37 -24 53 -22 4 1 7 -3 7 -8 0 -7 33 -21 48 -20 1 0 9 -6
17 -13 8 -7 33 -26 55 -43 41 -31 210 -192 210 -201 0 -5 40 -64 50 -74 21
-21 80 -139 80 -161 0 -10 4 -19 10 -19 5 0 12 -16 16 -35 3 -19 10 -37 14
-40 4 -3 13 -44 20 -92 6 -49 16 -96 21 -105 12 -23 12 -223 0 -246 -5 -9 -14
-55 -20 -101 -6 -46 -15 -89 -20 -95 -5 -6 -12 -26 -16 -45 -8 -40 -92 -204
-106 -209 -5 -2 -9 -8 -9 -13 0 -13 -39 -67 -67 -95 -13 -12 -23 -25 -23 -29
0 -10 -73 -85 -83 -85 -6 0 -19 -10 -31 -22 -29 -30 -82 -68 -96 -68 -5 0 -10
-4 -10 -9 0 -5 -16 -15 -35 -22 -19 -7 -35 -16 -35 -20 0 -4 -13 -10 -30 -14
-16 -4 -30 -11 -30 -15 0 -5 -16 -12 -35 -16 -19 -3 -38 -10 -40 -15 -3 -4
-27 -11 -53 -15 -26 -4 -50 -12 -54 -18 -10 -15 -426 -15 -436 0 -4 6 -28 14
-54 18 -26 4 -50 11 -53 15 -2 5 -21 12 -40 15 -19 4 -35 11 -35 16 0 4 -14
11 -31 15 -26 6 -107 53 -129 75 -3 3 -17 11 -33 19 -15 8 -27 18 -27 23 0 4
-5 8 -11 8 -12 0 -149 133 -149 145 0 4 -11 18 -24 30 -13 12 -27 32 -31 43
-3 12 -11 22 -16 22 -5 0 -9 7 -9 15 0 9 -7 18 -15 21 -8 4 -15 11 -15 18 0 6
-11 34 -25 61 -13 28 -25 58 -25 68 0 9 -4 17 -9 17 -5 0 -12 20 -15 45 -4 25
-11 45 -16 45 -5 0 -12 29 -15 65 -4 36 -11 68 -16 71 -12 7 -12 301 0 308 4
3 11 37 15 76 4 38 11 70 16 70 5 0 12 20 16 45 3 25 10 45 14 45 5 0 11 14
15 30 4 17 11 30 16 30 5 0 9 5 9 12 0 20 50 118 60 118 6 0 10 5 10 10 0 14
38 68 69 97 13 13 29 33 35 45 6 11 20 26 31 32 11 6 36 27 56 46 39 38 62 55
97 70 12 5 22 14 22 20 0 5 3 10 8 9 15 -2 52 14 52 22 0 5 3 9 8 8 15 -2 52
14 52 22 0 5 3 9 8 8 15 -2 52 14 52 23 0 5 5 6 10 3 6 -4 16 -2 23 3 7 5 35
13 62 17 28 4 55 11 60 15 23 19 345 19 370 0z m980 -1356 l-16 -29 7 35 c8
43 18 60 22 39 1 -8 -4 -28 -13 -45z m-2305 25 c0 -11 -4 -17 -10 -14 -5 3
-10 13 -10 21 0 8 5 14 10 14 6 0 10 -9 10 -21z m60 -41 c0 -34 -13 -29 -25
10 -5 16 -2 22 9 22 11 0 16 -10 16 -32z m2200 12 c0 -11 -4 -20 -10 -20 -5 0
-10 9 -10 20 0 11 5 20 10 20 6 0 10 -9 10 -20z m-1745 -790 c-28 -12 -45 -12
-45 0 0 6 15 10 33 9 27 0 29 -2 12 -9z m1315 0 c0 -12 -17 -12 -45 0 -17 7
-15 9 13 9 17 1 32 -3 32 -9z m-1220 -20 c0 -5 -19 -10 -42 -9 -33 0 -38 2
-23 9 28 12 65 12 65 0z m1145 0 c15 -7 10 -9 -22 -9 -24 -1 -43 4 -43 9 0 12
37 12 65 0z m-1032 -7 c-13 -2 -35 -2 -50 0 -16 2 -5 4 22 4 28 0 40 -2 28 -4z
m890 0 c-13 -2 -35 -2 -50 0 -16 2 -5 4 22 4 28 0 40 -2 28 -4z"/>
<path d="M1356 2878 c-15 -16 -17 -27 -10 -47 11 -29 55 -41 80 -20 19 16 19
69 -1 69 -8 0 -15 5 -15 10 0 17 -34 9 -54 -12z"/>
<path d="M2267 2880 c-14 -14 -17 -26 -12 -49 6 -26 11 -31 37 -31 57 0 79 54
33 84 -30 20 -35 19 -58 -4z"/>
<path d="M1783 2179 c-95 -83 -124 -131 -97 -160 24 -27 48 -24 87 11 33 29
87 41 87 20 0 -5 16 -12 35 -16 63 -11 86 33 40 76 -14 13 -25 29 -25 37 0 7
-7 13 -15 13 -9 0 -18 7 -21 15 -7 17 -72 20 -91 4z"/>
<path d="M2290 2120 c0 -5 -5 -10 -11 -10 -15 0 -73 -59 -82 -82 -3 -10 -11
-18 -17 -18 -16 0 -12 -46 5 -60 21 -18 73 -5 101 25 26 28 65 33 84 9 9 -10
26 -14 49 -12 34 3 36 5 34 37 -1 35 -54 101 -80 101 -7 0 -13 5 -13 10 0 6
-16 10 -35 10 -19 0 -35 -4 -35 -10z"/>
<path d="M1285 2075 c-11 -13 -25 -24 -32 -25 -17 0 -63 -51 -69 -77 -4 -13
-10 -23 -15 -23 -14 0 -10 -30 6 -46 21 -22 68 -14 80 13 5 12 29 31 52 43 41
20 45 21 68 6 29 -19 69 -21 83 -3 17 20 3 58 -36 100 -30 31 -43 37 -77 37
-30 0 -45 -6 -60 -25z"/>
<path d="M1960 1814 c-14 -10 -29 -24 -33 -31 -4 -7 -15 -13 -22 -13 -8 0 -15
-5 -15 -11 0 -6 -12 -25 -26 -44 -22 -29 -24 -36 -12 -54 20 -32 63 -27 98 10
25 28 32 31 64 25 20 -4 36 -11 36 -16 0 -6 20 -10 45 -10 39 0 45 3 45 20 0
12 -8 33 -17 48 -53 80 -115 109 -163 76z"/>
<path d="M2431 1817 c-95 -82 -128 -136 -99 -165 15 -15 58 -16 58 -2 0 6 6
10 13 10 8 0 22 9 32 20 21 24 58 26 75 5 17 -21 86 -20 94 1 10 25 8 31 -24
62 -16 17 -30 35 -30 41 0 6 -7 11 -15 11 -9 0 -18 7 -21 15 -7 18 -63 19 -83
2z"/>
<path d="M1470 1793 c-20 -7 -90 -75 -90 -87 0 -5 -7 -18 -16 -28 -39 -42 44
-67 93 -28 14 11 32 20 39 20 8 0 14 6 14 13 0 9 2 9 8 0 4 -6 20 -15 35 -18
15 -4 27 -11 27 -16 0 -14 40 -10 56 5 23 24 16 43 -36 96 -51 50 -82 60 -130
43z"/>
<path d="M1056 1731 c-50 -51 -57 -62 -54 -92 3 -31 5 -34 36 -32 21 1 41 10
57 27 25 27 80 36 87 15 2 -6 25 -13 51 -16 58 -7 72 14 38 55 -12 15 -29 38
-38 52 -9 14 -28 31 -42 38 -49 24 -73 15 -135 -47z"/>
</g>
</svg>
